<?xml version="1.0" encoding="utf-8"?>
<!-- Generator: Adobe Illustrator 18.0.0, SVG Export Plug-In . SVG Version: 6.00 Build 0)  -->
<!DOCTYPE svg PUBLIC "-//W3C//DTD SVG 1.1//EN" "http://www.w3.org/Graphics/SVG/1.1/DTD/svg11.dtd">
<svg version="1.1" xmlns="http://www.w3.org/2000/svg" xmlns:xlink="http://www.w3.org/1999/xlink" x="0px" y="0px"
	 viewBox="0 0 24 24" enable-background="new 0 0 24 24" xml:space="preserve">
<g id="Layer_1">
	<g>
		<g>
			<g>
				<g>
					<defs>
						<rect id="SVGID_1_" width="24" height="24"/>
					</defs>
					<clipPath id="SVGID_2_">
						<use xlink:href="#SVGID_1_"  overflow="visible"/>
					</clipPath>
					<g display="none" opacity="0.5" clip-path="url(#SVGID_2_)" enable-background="new    ">
						<g display="inline">
							<g>
								<defs>
									<rect id="SVGID_3_" width="24" height="24"/>
								</defs>
								<clipPath id="SVGID_4_">
									<use xlink:href="#SVGID_3_"  overflow="visible"/>
								</clipPath>
								<path clip-path="url(#SVGID_4_)" fill="#010101" d="M15.5,14h-0.8l-0.3-0.3c1-1.1,1.6-2.6,1.6-4.2C16,5.9,13.1,3,9.5,3
									S3,5.9,3,9.5S5.9,16,9.5,16c1.6,0,3.1-0.6,4.2-1.6l0.3,0.3v0.8l5,5l1.5-1.5L15.5,14z M9.5,14C7,14,5,12,5,9.5S7,5,9.5,5
									S14,7,14,9.5S12,14,9.5,14"/>
							</g>
						</g>
					</g>
					<g clip-path="url(#SVGID_2_)">
						<g>
							<g>
								<g>
									<defs>
										<rect id="SVGID_5_" width="24" height="24"/>
									</defs>
									<clipPath id="SVGID_6_">
										<use xlink:href="#SVGID_5_"  overflow="visible"/>
									</clipPath>
									<g opacity="0.5" clip-path="url(#SVGID_6_)" enable-background="new    ">
										<g>
											<g>
												<defs>
													<rect id="SVGID_7_" width="24" height="24"/>
												</defs>
												<clipPath id="SVGID_8_">
													<use xlink:href="#SVGID_7_"  overflow="visible"/>
												</clipPath>
												<path clip-path="url(#SVGID_8_)" fill="#FFFFFF" d="M3,18h18v-2H3V18z M3,13h18v-2H3V13z M3,8h18V6H3V8z"/>
											</g>
										</g>
									</g>
								</g>
							</g>
						</g>
					</g>
				</g>
			</g>
		</g>
	</g>
</g>
<g id="Layer_1_copy">
	<g>
		<g>
			<g>
				<g>
					<defs>
						<rect id="SVGID_9_" width="24" height="24"/>
					</defs>
					<clipPath id="SVGID_10_">
						<use xlink:href="#SVGID_9_"  overflow="visible"/>
					</clipPath>
					<g display="none" opacity="0.5" clip-path="url(#SVGID_10_)" enable-background="new    ">
						<g display="inline">
							<g>
								<defs>
									<rect id="SVGID_11_" width="24" height="24"/>
								</defs>
								<clipPath id="SVGID_12_">
									<use xlink:href="#SVGID_11_"  overflow="visible"/>
								</clipPath>
								<path clip-path="url(#SVGID_12_)" fill="#010101" d="M15.5,14h-0.8l-0.3-0.3c1-1.1,1.6-2.6,1.6-4.2C16,5.9,13.1,3,9.5,3
									S3,5.9,3,9.5S5.9,16,9.5,16c1.6,0,3.1-0.6,4.2-1.6l0.3,0.3v0.8l5,5l1.5-1.5L15.5,14z M9.5,14C7,14,5,12,5,9.5S7,5,9.5,5
									S14,7,14,9.5S12,14,9.5,14"/>
							</g>
						</g>
					</g>
					<g clip-path="url(#SVGID_10_)">
						<g>
							<g>
								<g>
									<defs>
										<rect id="SVGID_13_" width="24" height="24"/>
									</defs>
									<clipPath id="SVGID_14_">
										<use xlink:href="#SVGID_13_"  overflow="visible"/>
									</clipPath>
									<g opacity="0.5" clip-path="url(#SVGID_14_)" enable-background="new    ">
										<g>
											<g>
												<defs>
													<rect id="SVGID_15_" width="24" height="24"/>
												</defs>
												<clipPath id="SVGID_16_">
													<use xlink:href="#SVGID_15_"  overflow="visible"/>
												</clipPath>
												<path clip-path="url(#SVGID_16_)" fill="#FFFFFF" d="M3,18h18v-2H3V18z M3,13h18v-2H3V13z M3,8h18V6H3V8z"/>
											</g>
										</g>
									</g>
								</g>
							</g>
						</g>
					</g>
				</g>
			</g>
		</g>
	</g>
</g>
</svg>
